<?xml version="1.0" standalone="no"?><!DOCTYPE svg PUBLIC "-//W3C//DTD SVG 1.1//EN" "http://www.w3.org/Graphics/SVG/1.1/DTD/svg11.dtd"><svg t="1712887793448" class="icon" viewBox="0 0 1024 1024" version="1.1" xmlns="http://www.w3.org/2000/svg" p-id="7536" xmlns:xlink="http://www.w3.org/1999/xlink" width="200" height="200"><path d="M752 200h120A120 120 0 0 1 992 320v40H32V320a120 120 0 0 1 120-120H272V99.968a59.968 59.968 0 1 1 120 0v100.032h240V99.968a59.968 59.968 0 1 1 120 0v100.032zM32 442.944v437.056a120 120 0 0 0 120 120h720A120 120 0 0 0 992 880V442.944H32z m120 248.96a39.296 39.296 0 0 1-28.288-12.16 42.24 42.24 0 0 1-11.712-29.376 42.24 42.24 0 0 1 11.712-29.312 39.296 39.296 0 0 1 28.288-12.16h240c10.624 0 20.8 4.352 28.288 12.16a42.24 42.24 0 0 1 11.712 29.312 42.24 42.24 0 0 1-11.712 29.312 39.296 39.296 0 0 1-28.288 12.16h-240zM512 774.784c10.624 0 20.8 4.352 28.288 12.16a42.24 42.24 0 0 1 11.712 29.312 42.24 42.24 0 0 1-11.712 29.312 39.296 39.296 0 0 1-28.288 12.16H152a39.296 39.296 0 0 1-28.288-12.16 42.24 42.24 0 0 1-11.712-29.312 42.24 42.24 0 0 1 11.712-29.376 39.296 39.296 0 0 1 28.288-12.16H512z m231.104-219.264a53.312 53.312 0 1 1 106.688 0 53.312 53.312 0 0 1-106.688 0z m-98.56 96.896a27.968 27.968 0 0 1 19.712-8.064h264.32c7.424 0 14.528 2.944 19.712 8.064a27.392 27.392 0 0 1-19.648 47.04h-48.704v201.856a27.328 27.328 0 0 1-8.192 19.456 27.968 27.968 0 0 1-47.488-19.456v-82.56h-55.68v82.56a27.328 27.328 0 0 1-8.128 19.456 27.968 27.968 0 0 1-47.488-19.456V699.52h-48.64a27.968 27.968 0 0 1-19.712-8.064 27.392 27.392 0 0 1 0-38.976z" fill="#7b81ff" p-id="7537"></path></svg>