<?xml version="1.0" standalone="no"?><!DOCTYPE svg PUBLIC "-//W3C//DTD SVG 1.1//EN" "http://www.w3.org/Graphics/SVG/1.1/DTD/svg11.dtd"><svg t="1712889449970" class="icon" viewBox="0 0 1024 1024" version="1.1" xmlns="http://www.w3.org/2000/svg" p-id="8859" xmlns:xlink="http://www.w3.org/1999/xlink" width="200" height="200"><path d="M591.238 73.143v147.505c0 41.447 32.914 75.58 74.362 78.019h147.505v219.428c-12.19-2.438-25.6-2.438-39.01-2.438-135.314 0-245.028 110.933-245.028 247.467 0 76.8 34.133 145.066 88.99 190.171H186.514c-42.666 0-76.8-32.914-78.019-74.362V151.162c0-41.448 32.915-75.581 74.362-78.02h408.381zM485.181 374.248H225.524a10.926 10.926 0 0 0-10.972 10.971v52.42a10.926 10.926 0 0 0 10.972 10.97H485.18a10.926 10.926 0 0 0 10.971-10.97v-52.42c0-7.314-4.876-10.971-10.971-10.971z m0-159.696H225.524a10.926 10.926 0 0 0-10.972 10.972v52.419a10.926 10.926 0 0 0 10.972 10.971H485.18a10.926 10.926 0 0 0 10.971-10.971v-52.42a10.926 10.926 0 0 0-10.971-10.97z m163.352-141.41l167.01 165.791h-128c-21.943 0-39.01-17.066-39.01-39.01V73.144z" fill="#7b81ff" p-id="8860"></path><path d="M776.533 586.362c96.305 0 175.543 79.238 175.543 176.762 0 39.01-12.19 75.58-34.133 104.838l41.447 41.448c13.41 13.409 13.41 35.352 0 49.98-13.409 13.41-35.352 13.41-49.98 0l-43.886-43.885c-25.6 15.847-57.295 24.38-88.99 24.38-96.305 0-175.544-79.237-175.544-176.761s78.02-176.762 175.543-176.762z m0 70.705c-58.514 0-104.838 47.543-104.838 106.057S719.238 869.18 776.533 869.18s104.838-47.543 104.838-106.057-47.542-106.057-104.838-106.057z" fill="#7b81ff" p-id="8861"></path></svg>